<svg width="19" height="3" viewBox="0 0 19 3" fill="none" xmlns="http://www.w3.org/2000/svg">
<path d="M2.3125 0.0625C1.52188 0.0625 0.875 0.709375 0.875 1.5C0.875 2.29062 1.52188 2.9375 2.3125 2.9375C3.10312 2.9375 3.75 2.29062 3.75 1.5C3.75 0.709375 3.10312 0.0625 2.3125 0.0625ZM16.6875 0.0625C15.8969 0.0625 15.25 0.709375 15.25 1.5C15.25 2.29062 15.8969 2.9375 16.6875 2.9375C17.4781 2.9375 18.125 2.29062 18.125 1.5C18.125 0.709375 17.4781 0.0625 16.6875 0.0625ZM9.5 0.0625C8.70937 0.0625 8.0625 0.709375 8.0625 1.5C8.0625 2.29062 8.70937 2.9375 9.5 2.9375C10.2906 2.9375 10.9375 2.29062 10.9375 1.5C10.9375 0.709375 10.2906 0.0625 9.5 0.0625Z" fill="currentColor"/>
</svg>
