<svg width="19" height="19" viewBox="0 0 19 19" fill="none" xmlns="http://www.w3.org/2000/svg">
<path d="M14.7771 13.5399L18.5247 17.2866L17.2866 18.5247L13.5399 14.7771C12.1458 15.8947 10.4118 16.5025 8.625 16.5C4.278 16.5 0.75 12.972 0.75 8.625C0.75 4.278 4.278 0.75 8.625 0.75C12.972 0.75 16.5 4.278 16.5 8.625C16.5025 10.4118 15.8947 12.1458 14.7771 13.5399ZM13.0219 12.8906C14.1323 11.7486 14.7525 10.2179 14.75 8.625C14.75 5.2405 12.0086 2.5 8.625 2.5C5.2405 2.5 2.5 5.2405 2.5 8.625C2.5 12.0086 5.2405 14.75 8.625 14.75C10.2179 14.7525 11.7486 14.1323 12.8906 13.0219L13.0219 12.8906Z" fill="#A8ADC0"/>
</svg>
