<svg width="19" height="20" viewBox="0 0 19 20" fill="none" xmlns="http://www.w3.org/2000/svg">
<path d="M8.49992 14.3333H5.62492C4.86405 14.3315 4.13347 14.6313 3.59326 15.1671C3.32507 15.4349 3.11248 15.7532 2.96774 16.1035C2.82301 16.4538 2.74899 16.8293 2.74992 17.2083V19.125H0.833252V17.2083C0.833252 15.9375 1.3381 14.7187 2.23671 13.8201C3.13532 12.9215 4.35409 12.4167 5.62492 12.4167H8.49992V14.3333Z" fill="currentColor"/>
<path fill-rule="evenodd" clip-rule="evenodd" d="M8.49993 2.875C6.93512 2.875 5.66659 4.14353 5.66659 5.70833C5.66659 7.27314 6.93512 8.54167 8.49993 8.54167C10.0647 8.54167 11.3333 7.27314 11.3333 5.70833C11.3333 4.14353 10.0647 2.875 8.49993 2.875ZM3.66659 5.70833C3.66659 3.03896 5.83055 0.875 8.49993 0.875C11.1693 0.875 13.3333 3.03896 13.3333 5.70833C13.3333 8.37771 11.1693 10.5417 8.49993 10.5417C5.83055 10.5417 3.66659 8.37771 3.66659 5.70833Z" fill="currentColor"/>
<path d="M10.9916 15.5888C10.8672 15.0755 10.8672 14.5399 10.9916 14.0267L10.0333 13.4804L10.9916 11.8225L11.95 12.3687C12.3306 12.0091 12.79 11.7433 13.2916 11.5925V10.5H15.2083V11.5925C15.7117 11.7454 16.1738 12.0109 16.5595 12.3687L17.5179 11.8225L18.4762 13.4804L17.5179 14.0267C17.6327 14.541 17.6327 15.0744 17.5179 15.5888L18.4762 16.135L17.5179 17.7929L16.5595 17.2467C16.1763 17.6079 15.7134 17.8739 15.2083 18.0229V19.125H13.2916V18.0229C12.7884 17.8759 12.3282 17.6096 11.95 17.2467L10.9916 17.7929L10.0333 16.135L10.9916 15.5888ZM14.2499 16.25C14.631 16.2497 14.9964 16.098 15.2657 15.8283C15.5355 15.5572 15.687 15.1902 15.687 14.8077C15.687 14.4252 15.5355 14.0582 15.2657 13.7871C14.9938 13.5225 14.6294 13.3744 14.2499 13.3744C13.8705 13.3744 13.506 13.5225 13.2341 13.7871C12.9643 14.0582 12.8129 14.4252 12.8129 14.8077C12.8129 15.1902 12.9643 15.5572 13.2341 15.8283C13.5034 16.098 13.8688 16.2497 14.2499 16.25Z" fill="currentColor"/>
</svg>
