<svg width="20" height="19" viewBox="0 0 20 19" fill="none" xmlns="http://www.w3.org/2000/svg">
<path d="M5.22913 9.02083C4.6628 9.02083 4.10202 8.90929 3.5788 8.69256C3.05559 8.47584 2.58018 8.15818 2.17973 7.75773C1.77928 7.35728 1.46162 6.88187 1.2449 6.35866C1.02817 5.83544 0.916626 5.27466 0.916626 4.70833C0.916626 4.14201 1.02817 3.58123 1.2449 3.05801C1.46162 2.5348 1.77928 2.05939 2.17973 1.65894C2.58018 1.25848 3.05559 0.940827 3.5788 0.724104C4.10202 0.50738 4.6628 0.395834 5.22913 0.395834C6.37287 0.395834 7.46977 0.850185 8.27852 1.65894C9.08727 2.46769 9.54163 3.56459 9.54163 4.70833C9.54163 5.85208 9.08727 6.94898 8.27852 7.75773C7.46977 8.56648 6.37287 9.02083 5.22913 9.02083ZM5.70829 18.6042C4.56455 18.6042 3.46765 18.1498 2.65889 17.3411C1.85014 16.5323 1.39579 15.4354 1.39579 14.2917C1.39579 13.1479 1.85014 12.051 2.65889 11.2423C3.46765 10.4335 4.56455 9.97917 5.70829 9.97917C6.85204 9.97917 7.94894 10.4335 8.75769 11.2423C9.56644 12.051 10.0208 13.1479 10.0208 14.2917C10.0208 15.4354 9.56644 16.5323 8.75769 17.3411C7.94894 18.1498 6.85204 18.6042 5.70829 18.6042ZM15.2916 9.02083C14.7253 9.02083 14.1645 8.90929 13.6413 8.69256C13.1181 8.47584 12.6427 8.15818 12.2422 7.75773C11.8418 7.35728 11.5241 6.88187 11.3074 6.35866C11.0907 5.83544 10.9791 5.27466 10.9791 4.70833C10.9791 4.14201 11.0907 3.58123 11.3074 3.05801C11.5241 2.5348 11.8418 2.05939 12.2422 1.65894C12.6427 1.25848 13.1181 0.940827 13.6413 0.724104C14.1645 0.50738 14.7253 0.395834 15.2916 0.395834C16.4354 0.395834 17.5323 0.850185 18.341 1.65894C19.1498 2.46769 19.6041 3.56459 19.6041 4.70833C19.6041 5.85208 19.1498 6.94898 18.341 7.75773C17.5323 8.56648 16.4354 9.02083 15.2916 9.02083ZM15.2916 18.6042C14.1479 18.6042 13.051 18.1498 12.2422 17.3411C11.4335 16.5323 10.9791 15.4354 10.9791 14.2917C10.9791 13.1479 11.4335 12.051 12.2422 11.2423C13.051 10.4335 14.1479 9.97917 15.2916 9.97917C16.4354 9.97917 17.5323 10.4335 18.341 11.2423C19.1498 12.051 19.6041 13.1479 19.6041 14.2917C19.6041 15.4354 19.1498 16.5323 18.341 17.3411C17.5323 18.1498 16.4354 18.6042 15.2916 18.6042ZM5.22913 7.10417C5.86454 7.10417 6.47393 6.85175 6.92324 6.40244C7.37254 5.95314 7.62496 5.34375 7.62496 4.70833C7.62496 4.07292 7.37254 3.46353 6.92324 3.01422C6.47393 2.56492 5.86454 2.3125 5.22913 2.3125C4.59371 2.3125 3.98432 2.56492 3.53502 3.01422C3.08571 3.46353 2.83329 4.07292 2.83329 4.70833C2.83329 5.34375 3.08571 5.95314 3.53502 6.40244C3.98432 6.85175 4.59371 7.10417 5.22913 7.10417ZM5.70829 16.6875C6.34371 16.6875 6.9531 16.4351 7.4024 15.9858C7.85171 15.5365 8.10413 14.9271 8.10413 14.2917C8.10413 13.6563 7.85171 13.0469 7.4024 12.5976C6.9531 12.1483 6.34371 11.8958 5.70829 11.8958C5.07288 11.8958 4.46349 12.1483 4.01418 12.5976C3.56488 13.0469 3.31246 13.6563 3.31246 14.2917C3.31246 14.9271 3.56488 15.5365 4.01418 15.9858C4.46349 16.4351 5.07288 16.6875 5.70829 16.6875ZM15.2916 7.10417C15.927 7.10417 16.5364 6.85175 16.9857 6.40244C17.435 5.95314 17.6875 5.34375 17.6875 4.70833C17.6875 4.07292 17.435 3.46353 16.9857 3.01422C16.5364 2.56492 15.927 2.3125 15.2916 2.3125C14.6562 2.3125 14.0468 2.56492 13.5975 3.01422C13.1482 3.46353 12.8958 4.07292 12.8958 4.70833C12.8958 5.34375 13.1482 5.95314 13.5975 6.40244C14.0468 6.85175 14.6562 7.10417 15.2916 7.10417ZM15.2916 16.6875C15.927 16.6875 16.5364 16.4351 16.9857 15.9858C17.435 15.5365 17.6875 14.9271 17.6875 14.2917C17.6875 13.6563 17.435 13.0469 16.9857 12.5976C16.5364 12.1483 15.927 11.8958 15.2916 11.8958C14.6562 11.8958 14.0468 12.1483 13.5975 12.5976C13.1482 13.0469 12.8958 13.6563 12.8958 14.2917C12.8958 14.9271 13.1482 15.5365 13.5975 15.9858C14.0468 16.4351 14.6562 16.6875 15.2916 16.6875Z" fill="currentColor"/>
</svg>
