<svg width="22" height="22" viewBox="0 0 22 22" fill="none" xmlns="http://www.w3.org/2000/svg">
<path d="M9.54163 0.52038C9.85788 0.492588 10.177 0.479172 10.5 0.479172C16.5863 0.479172 21.5208 5.41363 21.5208 11.5C21.5208 11.823 21.5074 12.1421 21.4796 12.4583H20.0363C19.5553 17.3008 15.4689 21.0833 10.5 21.0833C5.20708 21.0833 0.916626 16.7929 0.916626 11.5C0.916626 6.53105 4.69917 2.44471 9.54163 1.96459V0.52038ZM9.54163 12.4583V3.89275C7.60839 4.13874 5.84136 5.11163 4.59968 6.61367C3.358 8.11572 2.73485 10.0342 2.85689 11.9792C2.97892 13.9242 3.83698 15.7497 5.25667 17.0848C6.67636 18.4199 8.55114 19.1643 10.5 19.1667C12.3674 19.1666 14.1706 18.4851 15.5712 17.25C16.9718 16.0149 17.8736 14.3111 18.1072 12.4583H9.54163ZM19.5543 10.5417C19.3346 8.46966 18.411 6.53564 16.9377 5.06229C15.4643 3.58895 13.5303 2.66538 11.4583 2.44567V10.5417H19.5543Z" fill="currentColor"/>
</svg>
