<svg width="19" height="19" viewBox="0 0 19 19" fill="none" xmlns="http://www.w3.org/2000/svg">
<path d="M18.125 17.1667C18.125 17.4208 18.024 17.6646 17.8443 17.8443C17.6646 18.024 17.4208 18.125 17.166 18.125H1.83333C1.57917 18.125 1.33541 18.024 1.15569 17.8443C0.975967 17.6646 0.875 17.4208 0.875 17.1667V7.09458C0.874899 6.94855 0.908175 6.80442 0.972286 6.6732C1.0364 6.54199 1.12965 6.42717 1.24492 6.3375L8.91158 0.374751C9.07981 0.243886 9.28687 0.172836 9.5 0.172836C9.71313 0.172836 9.92019 0.243886 10.0884 0.374751L17.7551 6.3375C17.8704 6.42717 17.9636 6.54199 18.0277 6.6732C18.0918 6.80442 18.1251 6.94855 18.125 7.09458V17.1667ZM16.2083 16.2083V7.56225L9.5 2.34508L2.79167 7.56225V16.2083H16.2083ZM4.70833 12.375H14.2917V14.2917H4.70833V12.375Z" fill="currentColor"/>
</svg>
