<svg width="21" height="19" viewBox="0 0 21 19" fill="none" xmlns="http://www.w3.org/2000/svg">
<path d="M1.87496 0.875H19.125C19.3791 0.875 19.6229 0.975967 19.8026 1.15569C19.9823 1.33541 20.0833 1.57917 20.0833 1.83333V17.1667C20.0833 17.4208 19.9823 17.6646 19.8026 17.8443C19.6229 18.024 19.3791 18.125 19.125 18.125H1.87496C1.62079 18.125 1.37704 18.024 1.19732 17.8443C1.01759 17.6646 0.916626 17.4208 0.916626 17.1667V1.83333C0.916626 1.57917 1.01759 1.33541 1.19732 1.15569C1.37704 0.975967 1.62079 0.875 1.87496 0.875ZM18.1666 8.54167H2.83329V16.2083H18.1666V8.54167ZM18.1666 6.625V2.79167H2.83329V6.625H18.1666ZM12.4166 12.375H16.25V14.2917H12.4166V12.375Z" fill="currentColor"/>
</svg>
