<svg width="17" height="20" viewBox="0 0 17 20" fill="none" xmlns="http://www.w3.org/2000/svg">
<path d="M16.1667 19.125H14.25V17.2083C14.25 16.4458 13.9471 15.7146 13.408 15.1754C12.8688 14.6362 12.1375 14.3333 11.375 14.3333H5.62504C4.86254 14.3333 4.13128 14.6362 3.59211 15.1754C3.05294 15.7146 2.75004 16.4458 2.75004 17.2083V19.125H0.833374V17.2083C0.833374 15.9375 1.33821 14.7187 2.23682 13.8201C3.13543 12.9215 4.35421 12.4167 5.62504 12.4167H11.375C12.6459 12.4167 13.8646 12.9215 14.7633 13.8201C15.6619 14.7187 16.1667 15.9375 16.1667 17.2083V19.125Z" fill="currentColor"/>
<path fill-rule="evenodd" clip-rule="evenodd" d="M8.50004 8.5C10.0418 8.5 11.2917 7.25013 11.2917 5.70833C11.2917 4.16654 10.0418 2.91667 8.50004 2.91667C6.95825 2.91667 5.70837 4.16654 5.70837 5.70833C5.70837 7.25013 6.95825 8.5 8.50004 8.5ZM8.50004 10.5C11.1464 10.5 13.2917 8.3547 13.2917 5.70833C13.2917 3.06197 11.1464 0.916666 8.50004 0.916666C5.85368 0.916666 3.70837 3.06197 3.70837 5.70833C3.70837 8.3547 5.85368 10.5 8.50004 10.5Z" fill="currentColor"/>
</svg>
