<svg width="23" height="17" viewBox="0 0 23 17" fill="none" xmlns="http://www.w3.org/2000/svg">
<path d="M11.5 0.833336C17.3219 0.833336 22.0417 3.40742 22.0417 6.58334V10.4167C22.0417 13.5926 17.3219 16.1667 11.5 16.1667C5.78167 16.1667 1.12704 13.6836 0.963166 10.5863L0.958374 10.4167V6.58334C0.958374 3.40742 5.67817 0.833336 11.5 0.833336ZM11.5 12.3333C7.93504 12.3333 4.78212 11.3683 2.87504 9.88959V10.4167C2.87504 12.2203 6.59625 14.25 11.5 14.25C16.3013 14.25 19.9698 12.3046 20.1203 10.5298L20.125 10.4167L20.126 9.88959C18.2189 11.3673 15.066 12.3333 11.5 12.3333ZM11.5 2.75C6.59625 2.75 2.87504 4.77975 2.87504 6.58334C2.87504 8.38692 6.59625 10.4167 11.5 10.4167C16.4038 10.4167 20.125 8.38692 20.125 6.58334C20.125 4.77975 16.4038 2.75 11.5 2.75Z" fill="currentColor"/>
</svg>
